<svg class="svg-icon" style="width: 1em; height: 1em;vertical-align: middle;fill: currentColor;overflow: hidden;" viewBox="0 0 1024 1024" version="1.1" xmlns="http://www.w3.org/2000/svg"><path d="M51.2 102.4a51.2 51.2 0 1 1-51.2 51.2 51.2 51.2 0 0 1 51.2-51.2z m204.8 0h716.8a51.2 51.2 0 0 1 0 102.4H256a51.2 51.2 0 0 1 0-102.4zM51.2 460.8a51.2 51.2 0 1 1-51.2 51.2 51.2 51.2 0 0 1 51.2-51.2z m204.8 0h716.8a51.2 51.2 0 0 1 0 102.4H256a51.2 51.2 0 0 1 0-102.4z m-204.8 358.4a51.2 51.2 0 1 1-51.2 51.2 51.2 51.2 0 0 1 51.2-51.2z m204.8 0h716.8a51.2 51.2 0 0 1 0 102.4H256a51.2 51.2 0 0 1 0-102.4z"  /></svg>